# xmcd CD database file
#
# Track frame offsets:
#	150
#	15503
#	37818
#	57490
#	79800
#	99112
#	123414
#	137450
#	155827
#	182718
#	204738
#	210260
#	222564
#	238166
#	247662
#	260288
#	273140
#	286916
#	302093
#	316652
#
# Disc length: 4407 seconds
#
# Revision: 0
# Processed by: cddbd v1.5.2PL0 Copyright (c) Steve Scherf et al.
# Submitted via: CDex 2.16
#
DISCID=0c113514
DTITLE=Stony Plain Records - 35 Years of Stony Plain [CD2]
DYEAR=2011
DGENRE=Blues
TTITLE0=Duke Robillard - Stomp the Blues Tonight
TTITLE1=Joe Louis Walker - Black Widow Spider
TTITLE2=Jay McShann and Duke Robillard - Moten Swing
TTITLE3=Kenny "Blues Boss" Wayne - Heaven Send Me an Angel
TTITLE4=Doug James and Sugar Ray Norcia - Dirty, Dirty People
TTITLE5=Jeff Healey - I'm in Town
TTITLE6=Rosco Gordon - No More Doggin'
TTITLE7=Gene Taylor Band - Teardrops on Your Letter
TTITLE8=Ronnie Earl and The Broadcasters - Miracle
TTITLE9=Rory Block - Mississippi Man
TTITLE10=Big Dave McLean - Police And High Sheriff
TTITLE11=Long John Baldry - Gallows Pole
TTITLE12=Sonny Rhodes - Honey Do Woman
TTITLE13=Ellen McIlwaine - Crawling King Snake
TTITLE14=Billy Boy Arnold - Hello Stranger
TTITLE15=King Biscuit Boy - Ain't Broke and Ain't Hungry
TTITLE16=Robert Nighthawk - Nighthawk Boogie	
TTITLE17=Robert Nighthawk - I'm Gonna Murder My Baby
TTITLE18=Robert Nighthawk - You Missed a Good Man
TTITLE19=Robert Nighthawk - Backwater Blues
EXTD=YEAR: 2011
EXTT0=
EXTT1=
EXTT2=
EXTT3=
EXTT4=
EXTT5=
EXTT6=
EXTT7=
EXTT8=
EXTT9=
EXTT10=
EXTT11=
EXTT12=
EXTT13=
EXTT14=
EXTT15=
EXTT16=
EXTT17=
EXTT18=
EXTT19=
PLAYORDER=
